# xmcd CD database file
#
# Track frame offsets:
#	150
#	18002
#	31225
#	42825
#	55258
#	64560
#	75276
#	85230
#	97632
#	120312
#	131748
#	146609
#	159972
#	173605
#	185437
#	199403
#	218047
#	234710
#
# Disc length: 3294 seconds
#
# Revision: 0
# Processed by: cddbd v1.4PL0 Copyright (c) Steve Scherf et al.
# Submitted via: Feurio! 1.61 - http://www.feurio.com
#
DISCID=da0cdc12
DTITLE=Solid Soul - CD3
DYEAR=1900
DGENRE=
TTITLE0=Ike and Tina Turner - River Deep, Mountain High
TTITLE1=Pecy Sledge - I´ve Been Loving You Too Long
TTITLE2=Jimmy Charles - A Million To On
TTITLE3=The Temtations - Beauty Is Only Skin Deep
TTITLE4=Gladys Knight and The Pips - Every Beat Of My Heart
TTITLE5=The Esquire - Get On Up
TTITLE6=The Chiffons - Sweet Talkin´ Guy
TTITLE7=The Platters - Only You
TTITLE8=The Chi-Lites - Have You Seen Her
TTITLE9=Clyde McPhatter - A Lover´s Question
TTITLE10=The Detroit Emeralos - Feel The Need In Me
TTITLE11=Percy Sledge - Take Time To Know Her
TTITLE12=Paul Young and The Q-Tips - Love Hurts
TTITLE13=Jack Scott - My True Love
TTITLE14=Aaron Neville - Tell It Like It Is
TTITLE15=The Temtation - Ball Of Confusion (That´s What The World Is Today)
TTITLE16=Mary Wells - Two Lovers
TTITLE17=Climax - Precious And Few
EXTD=
EXTT0=
EXTT1=
EXTT2=
EXTT3=
EXTT4=
EXTT5=
EXTT6=
EXTT7=
EXTT8=
EXTT9=
EXTT10=
EXTT11=
EXTT12=
EXTT13=
EXTT14=
EXTT15=
EXTT16=
EXTT17=
PLAYORDER=
